<?xml version="1.0" encoding="UTF-8"?>
<!DOCTYPE svg PUBLIC "-//W3C//DTD SVG 1.1//EN" "http://www.w3.org/Graphics/SVG/1.1/DTD/svg11.dtd">
<svg xmlns="http://www.w3.org/2000/svg" version="1.1" width="1100px" height="712px" style="shape-rendering:geometricPrecision; text-rendering:geometricPrecision; image-rendering:optimizeQuality; fill-rule:evenodd; clip-rule:evenodd" xmlns:xlink="http://www.w3.org/1999/xlink">
<g><path style="opacity:0.984" fill="#e5e5e5" d="M 939.5,562.5 C 938.883,562.389 938.383,562.056 938,561.5C 937.355,562.646 936.522,563.646 935.5,564.5C 895.333,564.833 855.167,565.167 815,565.5C 774.455,565.497 734.122,564.83 694,563.5C 693.617,564.056 693.117,564.389 692.5,564.5C 684.994,560.197 679.827,553.864 677,545.5C 676.215,511.808 675.049,478.308 673.5,445C 652.01,445.827 630.51,445.66 609,444.5C 603.201,444.434 597.534,445.101 592,446.5C 591.5,480.165 591.333,513.832 591.5,547.5C 564.833,547.5 538.167,547.5 511.5,547.5C 508.801,510.479 505.801,473.479 502.5,436.5C 502.833,435.833 503.167,435.167 503.5,434.5C 505.167,433.833 506.833,433.167 508.5,432.5C 538.5,432.5 568.5,432.5 598.5,432.5C 625.789,433.483 653.122,433.816 680.5,433.5C 693.167,433.5 705.833,433.5 718.5,433.5C 736.836,433.667 755.17,433.5 773.5,433C 776.961,432.038 779.295,429.872 780.5,426.5C 781.167,371.501 781.5,316.334 781.5,261C 781.5,205.496 780.833,150.329 779.5,95.5C 778.426,94.1154 777.093,92.9487 775.5,92C 733.168,91.5 690.835,91.3333 648.5,91.5C 526.444,91.0056 404.444,91.5056 282.5,93C 280.513,94.3189 279.346,96.1523 279,98.5C 278.833,104 278.667,109.5 278.5,115C 278.506,153.141 278.673,191.308 279,229.5C 305.428,230.329 331.928,230.829 358.5,231C 365.935,232.211 371.935,235.711 376.5,241.5C 380.374,246.109 382.707,251.442 383.5,257.5C 383.334,261.846 383.501,266.179 384,270.5C 384.75,271.126 385.584,271.626 386.5,272C 401.163,272.5 415.83,272.667 430.5,272.5C 429.242,276.036 428.409,279.703 428,283.5C 427.303,285.584 426.136,287.251 424.5,288.5C 410.753,287.862 397.253,288.529 384,290.5C 383.207,294.423 383.374,298.256 384.5,302C 396.837,302.487 409.171,302.987 421.5,303.5C 422.267,307.274 423.267,311.107 424.5,315C 424.352,316.256 424.018,317.423 423.5,318.5C 411.829,318.333 400.162,318.5 388.5,319C 387.584,319.374 386.75,319.874 386,320.5C 383.584,357.104 382.917,393.771 384,430.5C 400.929,432.478 418.095,433.144 435.5,432.5C 435.5,436.5 435.5,440.5 435.5,444.5C 418.386,444.97 401.219,445.636 384,446.5C 383.667,479.833 383.333,513.167 383,546.5C 381.607,550.286 379.941,553.952 378,557.5C 375.218,559.771 373.051,562.437 371.5,565.5C 325.139,566.824 278.473,566.824 231.5,565.5C 223.645,559.801 218.812,552.135 217,542.5C 216.667,484.5 216.333,426.5 216,368.5C 213.86,359.94 214.027,351.44 216.5,343C 213.872,332.672 213.872,322.339 216.5,312C 215.054,306.611 214.388,301.111 214.5,295.5C 215.998,282.576 216.831,269.576 217,256.5C 219.46,242.04 227.96,233.54 242.5,231C 250.159,230.5 257.826,230.334 265.5,230.5C 266.74,198.996 266.74,167.496 265.5,136C 266.26,120.846 266.76,105.68 267,90.5C 268.5,85 272,81.5 277.5,80C 446.222,79.0041 614.889,79.3374 783.5,81C 787.817,83.3151 790.65,86.8151 792,91.5C 792.167,115.507 792.667,139.507 793.5,163.5C 824.125,164.659 854.791,164.825 885.5,164C 890.379,162.429 895.379,161.596 900.5,161.5C 910.45,162.886 920.45,164.052 930.5,165C 940.84,168.007 948.007,174.507 952,184.5C 953.659,304.124 953.992,423.79 953,543.5C 951.414,552.039 946.914,558.372 939.5,562.5 Z M 648.5,91.5 C 628.528,102.134 610.528,115.468 594.5,131.5C 514.166,131.667 433.833,131.5 353.5,131C 349.679,130.406 345.845,129.906 342,129.5C 325.89,131.148 309.723,131.981 293.5,132C 290.697,135.41 291.697,136.91 296.5,136.5C 347.474,137.549 398.474,137.549 449.5,136.5C 495.876,136.823 542.209,136.49 588.5,135.5C 588.611,136.117 588.944,136.617 589.5,137C 572.871,154.415 559.871,174.249 550.5,196.5C 549.27,198.297 548.604,200.297 548.5,202.5C 545.261,209.545 542.594,216.878 540.5,224.5C 533.396,253.176 531.729,282.176 535.5,311.5C 528.925,312.745 525.592,316.745 525.5,323.5C 524.423,324.705 523.09,325.372 521.5,325.5C 520.883,325.389 520.383,325.056 520,324.5C 517.518,327.949 514.685,331.116 511.5,334C 504.211,337.311 497.211,341.144 490.5,345.5C 484.028,337.596 476.361,331.096 467.5,326C 466.303,323.985 464.97,322.151 463.5,320.5C 465.289,318.993 467.289,317.66 469.5,316.5C 467.051,314.027 467.051,311.694 469.5,309.5C 474.243,309.703 478.076,308.036 481,304.5C 484.721,307.344 487.054,306.344 488,301.5C 488.667,298.833 488.667,296.167 488,293.5C 485.231,288.961 482.731,284.294 480.5,279.5C 483.144,278.259 483.977,276.259 483,273.5C 478.244,262.871 470.078,258.705 458.5,261C 452.237,262.695 445.904,264.029 439.5,265C 435.7,266.642 432.7,269.142 430.5,272.5C 415.83,272.667 401.163,272.5 386.5,272C 385.584,271.626 384.75,271.126 384,270.5C 383.501,266.179 383.334,261.846 383.5,257.5C 400.17,257.667 416.837,257.5 433.5,257C 435.333,256.5 436.5,255.333 437,253.5C 437.956,249.428 437.456,245.595 435.5,242C 415.836,241.5 396.169,241.333 376.5,241.5C 371.935,235.711 365.935,232.211 358.5,231C 331.928,230.829 305.428,230.329 279,229.5C 278.673,191.308 278.506,153.141 278.5,115C 278.667,109.5 278.833,104 279,98.5C 279.346,96.1523 280.513,94.3189 282.5,93C 404.444,91.5056 526.444,91.0056 648.5,91.5 Z M 859.5,547.5 C 855.625,547.915 851.958,547.415 848.5,546C 851.361,543.106 853.861,539.939 856,536.5C 856.667,533.5 856.667,530.5 856,527.5C 855.585,525.709 854.585,524.376 853,523.5C 854.108,516.747 851.274,512.413 844.5,510.5C 841.758,493.607 836.425,477.607 828.5,462.5C 831.938,453.897 836.438,445.897 842,438.5C 847,434.833 851.333,430.5 855,425.5C 856.707,423.091 857.54,420.425 857.5,417.5C 853.323,418.158 851.823,416.492 853,412.5C 856.348,409.846 856.182,407.346 852.5,405C 842.165,403.136 836.498,407.636 835.5,418.5C 836.012,424.192 837.679,429.525 840.5,434.5C 837.333,439.5 834.167,444.5 831,449.5C 829.829,435.324 823.995,423.491 813.5,414C 806.986,410.923 801.986,412.423 798.5,418.5C 796.678,419.429 795.345,418.762 794.5,416.5C 793.895,413.873 793.395,411.207 793,408.5C 792.173,386.594 792.34,364.76 793.5,343C 821.167,342.667 848.833,342.333 876.5,342C 879.683,340.982 881.016,338.815 880.5,335.5C 880.742,332.486 879.742,329.986 877.5,328C 849.5,327.667 821.5,327.333 793.5,327C 792.374,323.256 792.207,319.423 793,315.5C 821.095,314.671 849.261,314.171 877.5,314C 880.428,310.743 881.262,306.909 880,302.5C 879.5,301.333 878.667,300.5 877.5,300C 849.5,299.667 821.5,299.333 793.5,299C 792.536,294.934 792.203,290.767 792.5,286.5C 809.621,285.791 826.954,285.291 844.5,285C 846.045,283.178 846.712,281.011 846.5,278.5C 846.712,275.989 846.045,273.822 844.5,272C 827.17,271.5 809.837,271.333 792.5,271.5C 792.5,252.167 792.5,232.833 792.5,213.5C 833.835,213.667 875.168,213.5 916.5,213C 917.337,211.989 917.67,210.822 917.5,209.5C 876.177,209.7 834.843,209.366 793.5,208.5C 792.172,200.098 792.172,191.598 793.5,183C 838.5,182.333 883.5,182.333 928.5,183C 931.573,183.739 933.74,185.572 935,188.5C 936.068,254.161 936.568,319.828 936.5,385.5C 936.654,438.197 936.154,490.864 935,543.5C 933.048,545.894 930.548,547.394 927.5,548C 904.761,548.822 882.094,548.655 859.5,547.5 Z M 356.5,557.5 C 356.985,524.292 347.318,494.625 327.5,468.5C 327.226,466.019 325.893,464.353 323.5,463.5C 306.101,442.282 284.101,427.782 257.5,420C 248.294,417.411 238.96,415.577 229.5,414.5C 228.178,414.67 227.011,414.337 226,413.5C 225.333,361.5 225.333,309.5 226,257.5C 231.125,241.516 241.959,235.849 258.5,240.5C 258.703,246.756 261.703,250.923 267.5,253C 289.5,253.667 311.5,253.667 333.5,253C 340.085,251.02 343.085,246.52 342.5,239.5C 349.574,239.161 356.574,239.661 363.5,241C 369.82,243.986 373.987,248.819 376,255.5C 376.667,351.833 376.667,448.167 376,544.5C 372.795,552.537 366.961,557.537 358.5,559.5C 357.287,559.253 356.62,558.586 356.5,557.5 Z M 284.5,240.5 C 291.2,240.17 297.866,240.503 304.5,241.5C 303.975,242.192 303.308,242.692 302.5,243C 296.833,243.667 291.167,243.667 285.5,243C 284.748,242.329 284.414,241.496 284.5,240.5 Z M 311.5,240.5 C 312.675,240.281 313.675,240.614 314.5,241.5C 312.948,242.798 311.948,242.465 311.5,240.5 Z M 424.5,288.5 C 422.861,293.36 421.861,298.36 421.5,303.5C 409.171,302.987 396.837,302.487 384.5,302C 383.374,298.256 383.207,294.423 384,290.5C 397.253,288.529 410.753,287.862 424.5,288.5 Z M 423.5,318.5 C 425.5,318.5 427.5,318.5 429.5,318.5C 431.199,318.34 432.866,318.506 434.5,319C 435.252,319.671 435.586,320.504 435.5,321.5C 431.515,323.321 428.681,326.321 427,330.5C 423.07,342.634 418.57,354.467 413.5,366C 413.408,368.814 414.408,371.147 416.5,373C 423.751,377.877 431.251,382.377 439,386.5C 440.142,394.811 440.475,403.145 440,411.5C 438.433,418.5 436.933,425.5 435.5,432.5C 418.095,433.144 400.929,432.478 384,430.5C 382.917,393.771 383.584,357.104 386,320.5C 386.75,319.874 387.584,319.374 388.5,319C 400.162,318.5 411.829,318.333 423.5,318.5 Z M 539.5,327.5 C 542.819,343.799 548.486,359.133 556.5,373.5C 560.549,382.596 565.382,391.263 571,399.5C 579.706,410.931 588.873,421.931 598.5,432.5C 568.5,432.5 538.5,432.5 508.5,432.5C 508.982,431.584 509.315,430.584 509.5,429.5C 508.298,425.06 506.798,420.726 505,416.5C 500.24,407.924 495.74,399.257 491.5,390.5C 497.699,385.224 498.033,379.558 492.5,373.5C 511.264,366.404 523.93,353.404 530.5,334.5C 533.786,332.549 536.786,330.215 539.5,327.5 Z M 692.5,564.5 C 659.336,565.664 626.003,565.831 592.5,565C 591.525,559.259 591.192,553.425 591.5,547.5C 591.333,513.832 591.5,480.165 592,446.5C 597.534,445.101 603.201,444.434 609,444.5C 630.51,445.66 652.01,445.827 673.5,445C 675.049,478.308 676.215,511.808 677,545.5C 679.827,553.864 684.994,560.197 692.5,564.5 Z M 514.5,445.5 C 523.167,445.5 531.833,445.5 540.5,445.5C 541.111,451.434 540.278,457.1 538,462.5C 531.033,469.079 524.033,469.079 517,462.5C 514.722,457.1 513.889,451.434 514.5,445.5 Z"/></g>
<g><path style="opacity:1" fill="#5f734f" d="M 648.5,91.5 C 690.835,91.3333 733.168,91.5 775.5,92C 777.093,92.9487 778.426,94.1154 779.5,95.5C 780.493,129.427 780.826,163.427 780.5,197.5C 755.167,197.5 729.833,197.5 704.5,197.5C 704.5,179.833 704.5,162.167 704.5,144.5C 703.167,144.5 701.833,144.5 700.5,144.5C 700.5,162.167 700.5,179.833 700.5,197.5C 671.167,197.5 641.833,197.5 612.5,197.5C 612.5,180.167 612.5,162.833 612.5,145.5C 611.167,145.5 609.833,145.5 608.5,145.5C 608.5,162.833 608.5,180.167 608.5,197.5C 589.091,197.82 569.757,197.487 550.5,196.5C 559.871,174.249 572.871,154.415 589.5,137C 588.944,136.617 588.611,136.117 588.5,135.5C 642.167,135.5 695.833,135.5 749.5,135.5C 749.5,134.5 749.5,133.5 749.5,132.5C 697.664,132.832 645.997,132.499 594.5,131.5C 610.528,115.468 628.528,102.134 648.5,91.5 Z"/></g>
<g><path style="opacity:1" fill="#3d3b52" d="M 320.5,101.5 C 332.127,100.954 336.627,106.287 334,117.5C 329.66,123.864 324.16,125.031 317.5,121C 311.629,113.397 312.629,106.897 320.5,101.5 Z"/></g>
<g><path style="opacity:1" fill="#3e3b53" d="M 393.5,101.5 C 406.599,101.42 410.766,107.42 406,119.5C 398.069,125.679 391.735,124.345 387,115.5C 386.209,109.417 388.376,104.75 393.5,101.5 Z"/></g>
<g><path style="opacity:1" fill="#3d3a52" d="M 356.5,101.5 C 367.99,100.156 372.824,105.156 371,116.5C 368.182,122.108 363.682,124.275 357.5,123C 351.092,119.677 348.925,114.511 351,107.5C 352.36,104.977 354.193,102.977 356.5,101.5 Z"/></g>
<g><path style="opacity:1" fill="#5e6c56" d="M 700.5,123.5 C 699.167,123.5 697.833,123.5 696.5,123.5C 696.357,121.738 696.691,120.071 697.5,118.5C 696.167,117.5 694.833,116.5 693.5,115.5C 694.167,114.5 694.833,113.5 695.5,112.5C 694.5,111.667 693.5,110.833 692.5,110C 693.766,109.691 694.933,109.191 696,108.5C 696.14,106.479 696.307,104.645 696.5,103C 705.515,102.717 714.515,102.217 723.5,101.5C 726.993,101.072 729.326,102.406 730.5,105.5C 730.069,107.766 728.736,109.266 726.5,110C 727.804,110.804 728.471,111.971 728.5,113.5C 728.063,116.949 728.063,120.282 728.5,123.5C 724.966,124.131 721.466,124.798 718,125.5C 714,125.5 710,125.5 706,125.5C 704.052,124.891 702.218,124.224 700.5,123.5 Z"/></g>
<g><path style="opacity:1" fill="#3e404c" d="M 699.5,111.5 C 708.506,111.334 717.506,111.5 726.5,112C 727.833,113 727.833,114 726.5,115C 717.173,115.5 707.839,115.666 698.5,115.5C 698.433,114.041 698.766,112.708 699.5,111.5 Z"/></g>
<g><path style="opacity:1" fill="#464e4e" d="M 700.5,103.5 C 709.173,103.334 717.84,103.5 726.5,104C 727.517,105.049 727.684,106.216 727,107.5C 717.583,108.485 708.083,108.818 698.5,108.5C 698.365,106.446 699.032,104.779 700.5,103.5 Z"/></g>
<g><path style="opacity:1" fill="#41444d" d="M 700.5,123.5 C 699.316,122.312 699.316,121.145 700.5,120C 709.494,119.5 718.494,119.334 727.5,119.5C 727.64,121.124 726.973,122.29 725.5,123C 717.173,123.5 708.84,123.666 700.5,123.5 Z"/></g>
<g><path style="opacity:0.919" fill="#cacbca" d="M 594.5,131.5 C 645.997,132.499 697.664,132.832 749.5,132.5C 749.5,133.5 749.5,134.5 749.5,135.5C 695.833,135.5 642.167,135.5 588.5,135.5C 542.209,136.49 495.876,136.823 449.5,136.5C 398.5,135.167 347.5,135.167 296.5,136.5C 291.697,136.91 290.697,135.41 293.5,132C 309.723,131.981 325.89,131.148 342,129.5C 345.845,129.906 349.679,130.406 353.5,131C 433.833,131.5 514.166,131.667 594.5,131.5 Z"/></g>
<g><path style="opacity:0.874" fill="#e5e5e5" d="M 296.5,136.5 C 347.5,135.167 398.5,135.167 449.5,136.5C 398.474,137.549 347.474,137.549 296.5,136.5 Z"/></g>
<g><path style="opacity:1" fill="#4c5d3f" d="M 780.5,197.5 C 780.5,198.833 780.5,200.167 780.5,201.5C 755.572,202.324 730.572,202.824 705.5,203C 704.352,211.088 704.185,219.254 705,227.5C 708.455,226.209 711.955,226.209 715.5,227.5C 716.436,228.974 717.77,229.974 719.5,230.5C 720.788,232.299 720.788,233.965 719.5,235.5C 719.67,234.178 719.337,233.011 718.5,232C 709.938,226.902 702.272,228.068 695.5,235.5C 695.238,234.022 695.571,232.689 696.5,231.5C 697.814,230.687 698.981,229.687 700,228.5C 700.5,219.506 700.666,210.506 700.5,201.5C 663.323,203.033 636.49,220.366 620,253.5C 615.026,265.675 612.526,278.341 612.5,291.5C 623.5,291.5 634.5,291.5 645.5,291.5C 645.33,292.822 645.663,293.989 646.5,295C 635.172,295.5 623.838,295.667 612.5,295.5C 612.5,309.5 612.5,323.5 612.5,337.5C 611.167,337.5 609.833,337.5 608.5,337.5C 608.5,323.5 608.5,309.5 608.5,295.5C 584.5,295.5 560.5,295.5 536.5,295.5C 536.051,301.359 536.717,307.025 538.5,312.5C 537.391,312.443 536.391,312.11 535.5,311.5C 531.729,282.176 533.396,253.176 540.5,224.5C 541.147,225.274 541.48,226.274 541.5,227.5C 540.229,233.688 538.896,239.854 537.5,246C 539.005,248.856 538.672,251.523 536.5,254C 537.081,254.893 537.415,255.893 537.5,257C 536.119,264.452 535.119,271.952 534.5,279.5C 534.413,283.665 535.08,287.665 536.5,291.5C 560.5,291.5 584.5,291.5 608.5,291.5C 608.5,261.5 608.5,231.5 608.5,201.5C 588.454,201.19 568.454,201.524 548.5,202.5C 548.604,200.297 549.27,198.297 550.5,196.5C 569.757,197.487 589.091,197.82 608.5,197.5C 608.5,180.167 608.5,162.833 608.5,145.5C 609.833,145.5 611.167,145.5 612.5,145.5C 612.5,162.833 612.5,180.167 612.5,197.5C 641.833,197.5 671.167,197.5 700.5,197.5C 700.5,179.833 700.5,162.167 700.5,144.5C 701.833,144.5 703.167,144.5 704.5,144.5C 704.5,162.167 704.5,179.833 704.5,197.5C 729.833,197.5 755.167,197.5 780.5,197.5 Z"/></g>
<g><path style="opacity:0.192" fill="#555266" d="M 896.5,196.5 C 901.032,196.069 905.365,196.569 909.5,198C 909.167,200.333 908.833,202.667 908.5,205C 904.514,205.499 900.514,205.666 896.5,205.5C 896.5,202.5 896.5,199.5 896.5,196.5 Z"/></g>
<g><path style="opacity:1" fill="#5e724d" d="M 540.5,224.5 C 542.594,216.878 545.261,209.545 548.5,202.5C 568.454,201.524 588.454,201.19 608.5,201.5C 608.5,231.5 608.5,261.5 608.5,291.5C 584.5,291.5 560.5,291.5 536.5,291.5C 535.08,287.665 534.413,283.665 534.5,279.5C 535.119,271.952 536.119,264.452 537.5,257C 537.415,255.893 537.081,254.893 536.5,254C 538.672,251.523 539.005,248.856 537.5,246C 538.896,239.854 540.229,233.688 541.5,227.5C 541.48,226.274 541.147,225.274 540.5,224.5 Z"/></g>
<g><path style="opacity:0.896" fill="#cccccd" d="M 793.5,208.5 C 834.843,209.366 876.177,209.7 917.5,209.5C 917.67,210.822 917.337,211.989 916.5,213C 875.168,213.5 833.835,213.667 792.5,213.5C 792.366,211.708 792.699,210.042 793.5,208.5 Z"/></g>
<g><path style="opacity:1" fill="#5f714e" d="M 376.5,241.5 C 396.169,241.333 415.836,241.5 435.5,242C 437.456,245.595 437.956,249.428 437,253.5C 436.5,255.333 435.333,256.5 433.5,257C 416.837,257.5 400.17,257.667 383.5,257.5C 382.707,251.442 380.374,246.109 376.5,241.5 Z"/></g>
<g><path style="opacity:1" fill="#2e2e3e" d="M 719.5,235.5 C 717.832,237.34 716.332,239.34 715,241.5C 714.507,246.822 717.007,248.822 722.5,247.5C 720.651,257.876 715.318,265.876 706.5,271.5C 704.284,272.203 702.451,273.536 701,275.5C 696.112,281.556 692.279,288.223 689.5,295.5C 685.645,301.21 682.312,307.21 679.5,313.5C 678.85,313.804 678.183,314.137 677.5,314.5C 674.169,312.416 670.503,311.416 666.5,311.5C 650.621,299.943 641.621,284.276 639.5,264.5C 641.39,264.703 642.89,264.037 644,262.5C 645.552,257.896 644.218,254.563 640,252.5C 640.184,247.641 642.35,243.807 646.5,241C 653.009,239.241 658.509,240.741 663,245.5C 671.007,253.507 677.007,262.841 681,273.5C 682.32,279.447 683.32,285.447 684,291.5C 684.718,292.451 685.551,292.617 686.5,292C 691.088,285.487 695.422,278.821 699.5,272C 697.134,266.568 694.968,261.068 693,255.5C 692.333,250.833 692.333,246.167 693,241.5C 694.559,239.783 695.392,237.783 695.5,235.5C 702.272,228.068 709.938,226.902 718.5,232C 719.337,233.011 719.67,234.178 719.5,235.5 Z"/></g>
<g><path style="opacity:1" fill="#5d704d" d="M 792.5,271.5 C 809.837,271.333 827.17,271.5 844.5,272C 846.045,273.822 846.712,275.989 846.5,278.5C 846.712,281.011 846.045,283.178 844.5,285C 826.954,285.291 809.621,285.791 792.5,286.5C 792.5,281.5 792.5,276.5 792.5,271.5 Z"/></g>
<g><path style="opacity:1" fill="#4c5c3f" d="M 706.5,271.5 C 706.013,272.473 705.513,273.473 705,274.5C 704.501,280.157 704.334,285.824 704.5,291.5C 729.5,291.5 754.5,291.5 779.5,291.5C 779.5,292.833 779.5,294.167 779.5,295.5C 746.148,295.915 722.648,311.249 709,341.5C 706.311,349.966 704.811,358.633 704.5,367.5C 729.5,367.5 754.5,367.5 779.5,367.5C 779.5,368.833 779.5,370.167 779.5,371.5C 754.5,371.5 729.5,371.5 704.5,371.5C 704.5,374.167 704.5,376.833 704.5,379.5C 703.178,379.33 702.011,379.663 701,380.5C 700.502,377.518 700.335,374.518 700.5,371.5C 690.833,371.5 681.167,371.5 671.5,371.5C 671.5,370.167 671.5,368.833 671.5,367.5C 681.167,367.5 690.833,367.5 700.5,367.5C 700.5,343.5 700.5,319.5 700.5,295.5C 696.622,295.695 692.956,295.695 689.5,295.5C 692.279,288.223 696.112,281.556 701,275.5C 702.451,273.536 704.284,272.203 706.5,271.5 Z"/></g>
<g><path style="opacity:1" fill="#5e724e" d="M 695.5,235.5 C 695.392,237.783 694.559,239.783 693,241.5C 692.333,246.167 692.333,250.833 693,255.5C 694.968,261.068 697.134,266.568 699.5,272C 695.422,278.821 691.088,285.487 686.5,292C 685.551,292.617 684.718,292.451 684,291.5C 683.32,285.447 682.32,279.447 681,273.5C 677.007,262.841 671.007,253.507 663,245.5C 658.509,240.741 653.009,239.241 646.5,241C 642.35,243.807 640.184,247.641 640,252.5C 644.218,254.563 645.552,257.896 644,262.5C 642.89,264.037 641.39,264.703 639.5,264.5C 641.621,284.276 650.621,299.943 666.5,311.5C 669.176,313.836 671.842,316.169 674.5,318.5C 668.266,336.969 665.433,355.969 666,375.5C 662.632,367.11 657.132,360.444 649.5,355.5C 638.467,350.15 627.467,344.65 616.5,339C 609.17,337.334 606.003,340.167 607,347.5C 607.383,348.056 607.883,348.389 608.5,348.5C 608.5,354.833 608.5,361.167 608.5,367.5C 591.497,367.667 574.497,367.5 557.5,367C 558.308,366.692 558.975,366.192 559.5,365.5C 558.033,365.277 556.533,364.944 555,364.5C 554.667,363.167 554.333,361.833 554,360.5C 549.338,356.265 547.005,350.932 547,344.5C 546.667,344.833 546.333,345.167 546,345.5C 544.67,339.387 543.17,333.387 541.5,327.5C 544.394,324.03 545.227,320.03 544,315.5C 543.184,314.177 542.017,313.511 540.5,313.5C 539.508,313.672 538.842,313.338 538.5,312.5C 536.717,307.025 536.051,301.359 536.5,295.5C 560.5,295.5 584.5,295.5 608.5,295.5C 608.5,309.5 608.5,323.5 608.5,337.5C 609.833,337.5 611.167,337.5 612.5,337.5C 612.5,323.5 612.5,309.5 612.5,295.5C 623.838,295.667 635.172,295.5 646.5,295C 645.663,293.989 645.33,292.822 645.5,291.5C 634.5,291.5 623.5,291.5 612.5,291.5C 612.526,278.341 615.026,265.675 620,253.5C 636.49,220.366 663.323,203.033 700.5,201.5C 700.666,210.506 700.5,219.506 700,228.5C 698.981,229.687 697.814,230.687 696.5,231.5C 695.571,232.689 695.238,234.022 695.5,235.5 Z"/></g>
<g><path style="opacity:1" fill="#d5ddcf" d="M 779.5,95.5 C 780.833,150.329 781.5,205.496 781.5,261C 781.5,316.334 781.167,371.501 780.5,426.5C 780.5,351.5 780.5,276.5 780.5,201.5C 780.5,200.167 780.5,198.833 780.5,197.5C 780.826,163.427 780.493,129.427 779.5,95.5 Z"/></g>
<g><path style="opacity:1" fill="#cfcbd2" d="M 469.5,309.5 C 467.051,311.694 467.051,314.027 469.5,316.5C 467.289,317.66 465.289,318.993 463.5,320.5C 460.703,318.205 458.036,315.705 455.5,313C 459.962,311.218 464.629,310.051 469.5,309.5 Z"/></g>
<g><path style="opacity:1" fill="#d4d3da" d="M 435.5,321.5 C 435.586,320.504 435.252,319.671 434.5,319C 432.866,318.506 431.199,318.34 429.5,318.5C 429.389,317.883 429.056,317.383 428.5,317C 430.372,314.707 431.872,312.207 433,309.5C 433.333,311.833 433.667,314.167 434,316.5C 444.835,312.342 446.335,313.842 438.5,321C 437.552,321.483 436.552,321.649 435.5,321.5 Z"/></g>
<g><path style="opacity:1" fill="#2e3438" d="M 666.5,311.5 C 670.503,311.416 674.169,312.416 677.5,314.5C 678.183,314.137 678.85,313.804 679.5,313.5C 671.622,335.441 668.289,358.108 669.5,381.5C 668.118,377.855 666.618,378.189 665,382.5C 663.256,381.351 663.089,380.017 664.5,378.5C 663.917,376.998 663.084,375.665 662,374.5C 661.667,374.833 661.333,375.167 661,375.5C 660.466,371.695 659.466,368.029 658,364.5C 655.655,361.823 652.988,359.49 650,357.5C 649.536,356.906 649.369,356.239 649.5,355.5C 657.132,360.444 662.632,367.11 666,375.5C 665.433,355.969 668.266,336.969 674.5,318.5C 671.842,316.169 669.176,313.836 666.5,311.5 Z"/></g>
<g><path style="opacity:1" fill="#5e714e" d="M 286.5,325.5 C 296.506,325.334 306.506,325.5 316.5,326C 319.36,329.681 320.193,333.848 319,338.5C 318.5,339.667 317.667,340.5 316.5,341C 306.167,341.667 295.833,341.667 285.5,341C 283.941,339.004 283.274,336.671 283.5,334C 283.046,330.517 284.046,327.684 286.5,325.5 Z"/></g>
<g><path style="opacity:1" fill="#f5b6b7" d="M 535.5,311.5 C 536.391,312.11 537.391,312.443 538.5,312.5C 538.842,313.338 539.508,313.672 540.5,313.5C 544.647,318.45 544.313,323.116 539.5,327.5C 536.786,330.215 533.786,332.549 530.5,334.5C 527.167,331.833 524.167,328.833 521.5,325.5C 523.09,325.372 524.423,324.705 525.5,323.5C 525.592,316.745 528.925,312.745 535.5,311.5 Z"/></g>
<g><path style="opacity:1" fill="#2f2e3f" d="M 649.5,355.5 C 649.369,356.239 649.536,356.906 650,357.5C 652.988,359.49 655.655,361.823 658,364.5C 659.466,368.029 660.466,371.695 661,375.5C 661.333,375.167 661.667,374.833 662,374.5C 663.084,375.665 663.917,376.998 664.5,378.5C 663.089,380.017 663.256,381.351 665,382.5C 666.618,378.189 668.118,377.855 669.5,381.5C 671.77,397.239 675.937,412.572 682,427.5C 682.787,412.367 687.287,398.367 695.5,385.5C 703.194,380.752 710.028,381.752 716,388.5C 716.345,390.677 715.845,392.677 714.5,394.5C 715.068,397.894 716.902,400.227 720,401.5C 721.418,406.428 721.751,411.428 721,416.5C 716.928,420.983 713.094,425.649 709.5,430.5C 712.939,430.906 715.939,431.906 718.5,433.5C 705.833,433.5 693.167,433.5 680.5,433.5C 676.085,423.586 673.085,413.253 671.5,402.5C 647.059,401.786 628.059,391.453 614.5,371.5C 613.692,369.074 612.692,366.741 611.5,364.5C 618.903,357.583 617.903,352.249 608.5,348.5C 607.883,348.389 607.383,348.056 607,347.5C 606.003,340.167 609.17,337.334 616.5,339C 627.467,344.65 638.467,350.15 649.5,355.5 Z"/></g>
<g><path style="opacity:0.978" fill="#e4e4e4" d="M 250.5,356.5 C 284.168,356.333 317.835,356.5 351.5,357C 354.751,358.59 356.417,361.257 356.5,365C 355.922,366.811 355.422,368.645 355,370.5C 353.933,371.191 352.766,371.691 351.5,372C 318.167,372.667 284.833,372.667 251.5,372C 247.745,371.011 246.078,368.511 246.5,364.5C 246.282,360.934 247.616,358.268 250.5,356.5 Z"/></g>
<g><path style="opacity:1" fill="#4e5f41" d="M 540.5,313.5 C 542.017,313.511 543.184,314.177 544,315.5C 545.227,320.03 544.394,324.03 541.5,327.5C 543.17,333.387 544.67,339.387 546,345.5C 546.333,345.167 546.667,344.833 547,344.5C 547.005,350.932 549.338,356.265 554,360.5C 554.333,361.833 554.667,363.167 555,364.5C 556.533,364.944 558.033,365.277 559.5,365.5C 558.975,366.192 558.308,366.692 557.5,367C 574.497,367.5 591.497,367.667 608.5,367.5C 608.5,361.167 608.5,354.833 608.5,348.5C 617.903,352.249 618.903,357.583 611.5,364.5C 612.692,366.741 613.692,369.074 614.5,371.5C 612.512,391.139 611.845,411.139 612.5,431.5C 611.167,431.5 609.833,431.5 608.5,431.5C 608.5,411.5 608.5,391.5 608.5,371.5C 590.801,370.847 573.468,371.514 556.5,373.5C 548.486,359.133 542.819,343.799 539.5,327.5C 544.313,323.116 544.647,318.45 540.5,313.5 Z"/></g>
<g><path style="opacity:1" fill="#5f724e" d="M 780.5,201.5 C 780.5,276.5 780.5,351.5 780.5,426.5C 779.295,429.872 776.961,432.038 773.5,433C 755.17,433.5 736.836,433.667 718.5,433.5C 715.939,431.906 712.939,430.906 709.5,430.5C 713.094,425.649 716.928,420.983 721,416.5C 721.751,411.428 721.418,406.428 720,401.5C 716.902,400.227 715.068,397.894 714.5,394.5C 715.845,392.677 716.345,390.677 716,388.5C 710.028,381.752 703.194,380.752 695.5,385.5C 687.287,398.367 682.787,412.367 682,427.5C 675.937,412.572 671.77,397.239 669.5,381.5C 668.289,358.108 671.622,335.441 679.5,313.5C 682.312,307.21 685.645,301.21 689.5,295.5C 692.956,295.695 696.622,295.695 700.5,295.5C 700.5,319.5 700.5,343.5 700.5,367.5C 690.833,367.5 681.167,367.5 671.5,367.5C 671.5,368.833 671.5,370.167 671.5,371.5C 681.167,371.5 690.833,371.5 700.5,371.5C 700.335,374.518 700.502,377.518 701,380.5C 702.011,379.663 703.178,379.33 704.5,379.5C 704.5,376.833 704.5,374.167 704.5,371.5C 729.5,371.5 754.5,371.5 779.5,371.5C 779.5,370.167 779.5,368.833 779.5,367.5C 754.5,367.5 729.5,367.5 704.5,367.5C 704.811,358.633 706.311,349.966 709,341.5C 722.648,311.249 746.148,295.915 779.5,295.5C 779.5,294.167 779.5,292.833 779.5,291.5C 754.5,291.5 729.5,291.5 704.5,291.5C 704.334,285.824 704.501,280.157 705,274.5C 705.513,273.473 706.013,272.473 706.5,271.5C 715.318,265.876 720.651,257.876 722.5,247.5C 717.007,248.822 714.507,246.822 715,241.5C 716.332,239.34 717.832,237.34 719.5,235.5C 720.788,233.965 720.788,232.299 719.5,230.5C 717.77,229.974 716.436,228.974 715.5,227.5C 711.955,226.209 708.455,226.209 705,227.5C 704.185,219.254 704.352,211.088 705.5,203C 730.572,202.824 755.572,202.324 780.5,201.5 Z"/></g>
<g><path style="opacity:1" fill="#5f724e" d="M 614.5,371.5 C 628.059,391.453 647.059,401.786 671.5,402.5C 673.085,413.253 676.085,423.586 680.5,433.5C 653.122,433.816 625.789,433.483 598.5,432.5C 588.873,421.931 579.706,410.931 571,399.5C 565.382,391.263 560.549,382.596 556.5,373.5C 573.468,371.514 590.801,370.847 608.5,371.5C 608.5,391.5 608.5,411.5 608.5,431.5C 609.833,431.5 611.167,431.5 612.5,431.5C 611.845,411.139 612.512,391.139 614.5,371.5 Z"/></g>
<g><path style="opacity:1" fill="#f8b5b6" d="M 484.5,373.5 C 485.167,373.5 485.833,373.5 486.5,373.5C 488.5,373.5 490.5,373.5 492.5,373.5C 498.033,379.558 497.699,385.224 491.5,390.5C 485.573,388.972 479.573,387.638 473.5,386.5C 474.326,382.864 474.992,379.197 475.5,375.5C 477.401,375.433 479.234,375.767 481,376.5C 482.642,376.022 483.809,375.022 484.5,373.5 Z"/></g>
<g><path style="opacity:0.991" fill="#e4e4e4" d="M 250.5,387.5 C 284.168,387.333 317.835,387.5 351.5,388C 352.931,388.465 354.097,389.299 355,390.5C 355.667,393.833 355.667,397.167 355,400.5C 354.228,401.849 353.061,402.682 351.5,403C 317.5,403.667 283.5,403.667 249.5,403C 247.051,401.137 246.051,398.637 246.5,395.5C 245.784,391.686 247.118,389.019 250.5,387.5 Z"/></g>
<g><path style="opacity:1" fill="#2f2d3f" d="M 469.5,309.5 C 464.629,310.051 459.962,311.218 455.5,313C 458.036,315.705 460.703,318.205 463.5,320.5C 464.97,322.151 466.303,323.985 467.5,326C 476.361,331.096 484.028,337.596 490.5,345.5C 497.211,341.144 504.211,337.311 511.5,334C 514.685,331.116 517.518,327.949 520,324.5C 520.383,325.056 520.883,325.389 521.5,325.5C 524.167,328.833 527.167,331.833 530.5,334.5C 523.93,353.404 511.264,366.404 492.5,373.5C 490.5,373.5 488.5,373.5 486.5,373.5C 489.952,356.902 484.785,343.902 471,334.5C 475.167,347.497 479.667,360.497 484.5,373.5C 483.809,375.022 482.642,376.022 481,376.5C 479.234,375.767 477.401,375.433 475.5,375.5C 474.992,379.197 474.326,382.864 473.5,386.5C 479.573,387.638 485.573,388.972 491.5,390.5C 495.74,399.257 500.24,407.924 505,416.5C 506.798,420.726 508.298,425.06 509.5,429.5C 509.315,430.584 508.982,431.584 508.5,432.5C 506.833,433.167 505.167,433.833 503.5,434.5C 502.503,434.53 501.836,434.03 501.5,433C 497.455,421.695 493.122,410.528 488.5,399.5C 487.881,406.267 486.714,412.933 485,419.5C 482.716,422.827 480.382,426.16 478,429.5C 476.899,434.257 475.899,438.924 475,443.5C 484.054,440.778 493.221,438.445 502.5,436.5C 505.801,473.479 508.801,510.479 511.5,547.5C 512.014,554.656 512.681,561.656 513.5,568.5C 514.835,577.83 515.168,587.163 514.5,596.5C 513.261,596.942 512.261,597.609 511.5,598.5C 507.066,597.206 502.733,597.206 498.5,598.5C 497.25,598.423 496.417,597.756 496,596.5C 494.138,587.055 491.972,577.722 489.5,568.5C 488.824,559.85 487.157,551.517 484.5,543.5C 480.583,523.414 476.249,503.414 471.5,483.5C 467.484,493.546 464.484,503.88 462.5,514.5C 460.07,520.96 457.903,527.627 456,534.5C 448.001,545.328 439.834,555.994 431.5,566.5C 430.662,566.842 430.328,567.508 430.5,568.5C 425.197,574.644 420.031,580.978 415,587.5C 414.617,586.944 414.117,586.611 413.5,586.5C 409.896,583.025 405.896,580.025 401.5,577.5C 401.062,577.565 400.728,577.399 400.5,577C 402.674,574.24 403.674,571.407 403.5,568.5C 403.5,567.833 403.5,567.167 403.5,566.5C 405.592,566.439 407.092,565.439 408,563.5C 415.079,549.674 422.412,536.008 430,522.5C 432.659,496.445 434.492,470.445 435.5,444.5C 435.5,440.5 435.5,436.5 435.5,432.5C 436.933,425.5 438.433,418.5 440,411.5C 440.475,403.145 440.142,394.811 439,386.5C 431.251,382.377 423.751,377.877 416.5,373C 414.408,371.147 413.408,368.814 413.5,366C 418.57,354.467 423.07,342.634 427,330.5C 428.681,326.321 431.515,323.321 435.5,321.5C 436.552,321.649 437.552,321.483 438.5,321C 446.335,313.842 444.835,312.342 434,316.5C 433.667,314.167 433.333,311.833 433,309.5C 431.872,312.207 430.372,314.707 428.5,317C 429.056,317.383 429.389,317.883 429.5,318.5C 427.5,318.5 425.5,318.5 423.5,318.5C 424.018,317.423 424.352,316.256 424.5,315C 423.267,311.107 422.267,307.274 421.5,303.5C 421.861,298.36 422.861,293.36 424.5,288.5C 426.136,287.251 427.303,285.584 428,283.5C 428.409,279.703 429.242,276.036 430.5,272.5C 432.7,269.142 435.7,266.642 439.5,265C 445.904,264.029 452.237,262.695 458.5,261C 470.078,258.705 478.244,262.871 483,273.5C 483.977,276.259 483.144,278.259 480.5,279.5C 482.731,284.294 485.231,288.961 488,293.5C 488.667,296.167 488.667,298.833 488,301.5C 487.054,306.344 484.721,307.344 481,304.5C 478.076,308.036 474.243,309.703 469.5,309.5 Z M 462.5,514.5 C 462.5,525.167 462.5,535.833 462.5,546.5C 462.81,552.758 462.476,558.924 461.5,565C 451.454,565.215 441.454,565.715 431.5,566.5C 439.834,555.994 448.001,545.328 456,534.5C 457.903,527.627 460.07,520.96 462.5,514.5 Z"/></g>
<g><path style="opacity:1" fill="#5c6c53" d="M 486.5,373.5 C 485.833,373.5 485.167,373.5 484.5,373.5C 479.667,360.497 475.167,347.497 471,334.5C 484.785,343.902 489.952,356.902 486.5,373.5 Z"/></g>
<g><path style="opacity:1" fill="#f9b5b7" d="M 469.5,277.5 C 470.943,278.335 471.943,279.668 472.5,281.5C 474.702,280.22 476.868,280.22 479,281.5C 481.763,293.644 477.43,301.977 466,306.5C 461.45,299.9 457.284,293.067 453.5,286C 453.905,285.055 454.572,284.388 455.5,284C 459.584,283.769 463.584,283.102 467.5,282C 469.037,280.89 469.703,279.39 469.5,277.5 Z"/></g>
<g><path style="opacity:0.999" fill="#f1f1f1" d="M 229.5,414.5 C 238.96,415.577 248.294,417.411 257.5,420C 284.101,427.782 306.101,442.282 323.5,463.5C 315.903,464.997 313.07,469.663 315,477.5C 315.833,480 316.667,482.5 317.5,485C 315.349,488.49 313.182,491.99 311,495.5C 310.194,486.396 306.694,478.563 300.5,472C 295.641,469.297 291.975,470.297 289.5,475C 291.902,477.587 291.902,480.254 289.5,483C 291.863,493.226 297.529,501.059 306.5,506.5C 303.305,515.183 301.805,524.183 302,533.5C 300.612,529.447 298.112,526.28 294.5,524C 288.125,520.462 281.459,518.129 274.5,517C 273.978,517.561 273.645,518.228 273.5,519C 274.377,520.867 275.877,522.034 278,522.5C 278.756,524.809 278.256,526.809 276.5,528.5C 282.217,539.381 291.217,545.215 303.5,546C 304.939,550.594 306.606,555.094 308.5,559.5C 286.239,560.655 263.906,560.822 241.5,560C 230.223,556.294 224.723,548.46 225,536.5C 224.5,496.501 224.333,456.501 224.5,416.5C 226.527,416.662 228.527,416.495 230.5,416C 229.944,415.617 229.611,415.117 229.5,414.5 Z"/></g>
<g><path style="opacity:1" fill="#5f7050" d="M 503.5,434.5 C 503.167,435.167 502.833,435.833 502.5,436.5C 493.221,438.445 484.054,440.778 475,443.5C 475.899,438.924 476.899,434.257 478,429.5C 480.382,426.16 482.716,422.827 485,419.5C 486.714,412.933 487.881,406.267 488.5,399.5C 493.122,410.528 497.455,421.695 501.5,433C 501.836,434.03 502.503,434.53 503.5,434.5 Z"/></g>
<g><path style="opacity:1" fill="#f1f1f1" d="M 794.5,416.5 C 795.345,418.762 796.678,419.429 798.5,418.5C 800.18,420.542 801.513,422.876 802.5,425.5C 798.389,433.035 798.889,440.369 804,447.5C 806.106,449.377 807.439,451.71 808,454.5C 812.882,459.386 818.049,463.886 823.5,468C 819.381,480.498 817.214,493.331 817,506.5C 815.114,502.56 812.614,499.06 809.5,496C 800.623,490.586 791.289,485.919 781.5,482C 776.628,481.375 774.628,483.541 775.5,488.5C 783.464,490.326 784.464,493.993 778.5,499.5C 787.046,516.913 801.046,525.913 820.5,526.5C 822.43,533.956 824.763,541.289 827.5,548.5C 785.832,548.667 744.165,548.5 702.5,548C 699.943,547.315 698.109,545.815 697,543.5C 695.885,526.032 695.385,508.532 695.5,491C 695.833,475.833 696.167,460.667 696.5,445.5C 724.791,444.675 753.124,444.175 781.5,444C 790.57,439.482 794.237,432.148 792.5,422C 791.251,419.79 791.418,417.624 793,415.5C 793.383,416.056 793.883,416.389 794.5,416.5 Z"/></g>
<g><path style="opacity:0.999" fill="#f1f1f1" d="M 828.5,462.5 C 836.425,477.607 841.758,493.607 844.5,510.5C 841.542,512.435 838.709,514.768 836,517.5C 834,522.833 832,528.167 830,533.5C 829.667,537.5 829.333,541.5 829,545.5C 820.509,524.889 818.176,503.556 822,481.5C 823.296,474.778 825.462,468.445 828.5,462.5 Z"/></g>
<g><path style="opacity:0.997" fill="#f1f1f1" d="M 327.5,468.5 C 347.318,494.625 356.985,524.292 356.5,557.5C 355.778,557.082 355.278,556.416 355,555.5C 354.506,557.134 354.34,558.801 354.5,560.5C 343.806,560.709 333.14,560.375 322.5,559.5C 328.432,553.103 329.099,546.103 324.5,538.5C 321.579,536.072 318.579,536.072 315.5,538.5C 312.242,544.107 310.075,550.107 309,556.5C 298.519,526.626 304.519,500.626 327,478.5C 327.402,477.128 327.902,475.795 328.5,474.5C 324.179,472.659 323.845,470.659 327.5,468.5 Z"/></g>
<g><path style="opacity:1" fill="#cccccc" d="M 828.5,462.5 C 825.462,468.445 823.296,474.778 822,481.5C 818.176,503.556 820.509,524.889 829,545.5C 829.333,541.5 829.667,537.5 830,533.5C 832,528.167 834,522.833 836,517.5C 838.709,514.768 841.542,512.435 844.5,510.5C 851.274,512.413 854.108,516.747 853,523.5C 854.585,524.376 855.585,525.709 856,527.5C 856.667,530.5 856.667,533.5 856,536.5C 853.861,539.939 851.361,543.106 848.5,546C 851.958,547.415 855.625,547.915 859.5,547.5C 849.013,548.494 838.346,548.828 827.5,548.5C 824.763,541.289 822.43,533.956 820.5,526.5C 801.046,525.913 787.046,516.913 778.5,499.5C 784.464,493.993 783.464,490.326 775.5,488.5C 774.628,483.541 776.628,481.375 781.5,482C 791.289,485.919 800.623,490.586 809.5,496C 812.614,499.06 815.114,502.56 817,506.5C 817.214,493.331 819.381,480.498 823.5,468C 818.049,463.886 812.882,459.386 808,454.5C 807.439,451.71 806.106,449.377 804,447.5C 798.889,440.369 798.389,433.035 802.5,425.5C 801.513,422.876 800.18,420.542 798.5,418.5C 801.986,412.423 806.986,410.923 813.5,414C 823.995,423.491 829.829,435.324 831,449.5C 834.167,444.5 837.333,439.5 840.5,434.5C 837.679,429.525 836.012,424.192 835.5,418.5C 836.498,407.636 842.165,403.136 852.5,405C 856.182,407.346 856.348,409.846 853,412.5C 851.823,416.492 853.323,418.158 857.5,417.5C 857.54,420.425 856.707,423.091 855,425.5C 851.333,430.5 847,434.833 842,438.5C 836.438,445.897 831.938,453.897 828.5,462.5 Z"/></g>
<g><path style="opacity:0.998" fill="#e2e2e3" d="M 484.5,543.5 C 484.5,544.833 484.5,546.167 484.5,547.5C 477.08,547.797 469.746,547.464 462.5,546.5C 462.5,535.833 462.5,525.167 462.5,514.5C 464.484,503.88 467.484,493.546 471.5,483.5C 476.249,503.414 480.583,523.414 484.5,543.5 Z"/></g>
<g><path style="opacity:1" fill="#cdcdcd" d="M 323.5,463.5 C 325.893,464.353 327.226,466.019 327.5,468.5C 323.845,470.659 324.179,472.659 328.5,474.5C 327.902,475.795 327.402,477.128 327,478.5C 304.519,500.626 298.519,526.626 309,556.5C 310.075,550.107 312.242,544.107 315.5,538.5C 318.579,536.072 321.579,536.072 324.5,538.5C 329.099,546.103 328.432,553.103 322.5,559.5C 317.833,560.833 313.167,560.833 308.5,559.5C 306.606,555.094 304.939,550.594 303.5,546C 291.217,545.215 282.217,539.381 276.5,528.5C 278.256,526.809 278.756,524.809 278,522.5C 275.877,522.034 274.377,520.867 273.5,519C 273.645,518.228 273.978,517.561 274.5,517C 281.459,518.129 288.125,520.462 294.5,524C 298.112,526.28 300.612,529.447 302,533.5C 301.805,524.183 303.305,515.183 306.5,506.5C 297.529,501.059 291.863,493.226 289.5,483C 291.902,480.254 291.902,477.587 289.5,475C 291.975,470.297 295.641,469.297 300.5,472C 306.694,478.563 310.194,486.396 311,495.5C 313.182,491.99 315.349,488.49 317.5,485C 316.667,482.5 315.833,480 315,477.5C 313.07,469.663 315.903,464.997 323.5,463.5 Z"/></g>
<g><path style="opacity:0.974" fill="#c9c9ca" d="M 484.5,543.5 C 487.157,551.517 488.824,559.85 489.5,568.5C 469.825,569.585 450.159,569.585 430.5,568.5C 430.328,567.508 430.662,566.842 431.5,566.5C 441.454,565.715 451.454,565.215 461.5,565C 462.476,558.924 462.81,552.758 462.5,546.5C 469.746,547.464 477.08,547.797 484.5,547.5C 484.5,546.167 484.5,544.833 484.5,543.5 Z"/></g>
<g><path style="opacity:0.997" fill="#cbcbcb" d="M 511.5,547.5 C 538.167,547.5 564.833,547.5 591.5,547.5C 591.192,553.425 591.525,559.259 592.5,565C 626.003,565.831 659.336,565.664 692.5,564.5C 693.117,564.389 693.617,564.056 694,563.5C 734.122,564.83 774.455,565.497 815,565.5C 855.167,565.167 895.333,564.833 935.5,564.5C 936.522,563.646 937.355,562.646 938,561.5C 938.383,562.056 938.883,562.389 939.5,562.5C 939.047,563.458 938.381,564.292 937.5,565C 951.496,565.5 965.496,565.667 979.5,565.5C 979.5,566.5 979.5,567.5 979.5,568.5C 824.178,568.876 668.844,568.876 513.5,568.5C 512.681,561.656 512.014,554.656 511.5,547.5 Z"/></g>
<g><path style="opacity:0.951" fill="#c5c5c5" d="M 403.5,566.5 C 403.5,567.167 403.5,567.833 403.5,568.5C 339.189,568.24 274.855,568.573 210.5,569.5C 180.163,569.021 149.829,568.354 119.5,567.5C 119.709,566.914 120.043,566.414 120.5,566C 157.498,565.5 194.498,565.333 231.5,565.5C 278.473,566.824 325.139,566.824 371.5,565.5C 372.695,565.322 373.862,564.989 375,564.5C 384.641,565.13 394.141,565.797 403.5,566.5 Z"/></g>
<g><path style="opacity:0.967" fill="#f1f1f1" d="M 558.5,625.5 C 558.265,624.903 557.765,624.57 557,624.5C 552.687,627.737 547.854,628.903 542.5,628C 543.811,625.726 543.811,623.56 542.5,621.5C 546.246,603.587 557.079,592.921 575,589.5C 576.28,589.613 577.113,590.28 577.5,591.5C 573.277,598.654 570.11,606.321 568,614.5C 566.212,619.441 563.046,623.107 558.5,625.5 Z"/></g>
<g><path style="opacity:1" fill="#f7b5b7" d="M 401.5,577.5 C 405.896,580.025 409.896,583.025 413.5,586.5C 409.025,591.437 405.025,596.77 401.5,602.5C 397.345,601.258 393.678,599.258 390.5,596.5C 395.4,590.921 399.067,584.587 401.5,577.5 Z"/></g>
<g><path style="opacity:1" fill="#f4b5b7" d="M 511.5,598.5 C 510.167,601.5 510.167,604.5 511.5,607.5C 506.833,607.5 502.167,607.5 497.5,607.5C 498.403,604.609 498.736,601.609 498.5,598.5C 502.733,597.206 507.066,597.206 511.5,598.5 Z"/></g>
<g><path style="opacity:1" fill="#2f2d3e" d="M 390.5,596.5 C 393.678,599.258 397.345,601.258 401.5,602.5C 402.097,602.735 402.43,603.235 402.5,604C 401.691,605.784 401.024,607.617 400.5,609.5C 403.414,615.32 405.748,621.32 407.5,627.5C 403.456,628.661 399.789,628.661 396.5,627.5C 393.194,625.511 389.861,623.511 386.5,621.5C 385.702,619.922 385.202,618.256 385,616.5C 382.032,618.928 379.198,618.595 376.5,615.5C 380.477,608.497 385.143,602.164 390.5,596.5 Z"/></g>
<g><path style="opacity:1" fill="#2e2d3e" d="M 497.5,607.5 C 502.167,607.5 506.833,607.5 511.5,607.5C 511.34,609.199 511.506,610.866 512,612.5C 516.745,616.122 521.578,619.622 526.5,623C 527.38,624.356 527.714,625.856 527.5,627.5C 519.891,628.798 512.224,628.798 504.5,627.5C 503.5,623.5 502.5,623.5 501.5,627.5C 499.141,628.714 496.808,628.714 494.5,627.5C 495.055,621.846 495.555,616.18 496,610.5C 496.232,609.263 496.732,608.263 497.5,607.5 Z"/></g>
<g><path style="opacity:0.605" fill="#d1d1d2" d="M 542.5,621.5 C 543.811,623.56 543.811,625.726 542.5,628C 547.854,628.903 552.687,627.737 557,624.5C 557.765,624.57 558.265,624.903 558.5,625.5C 557.711,625.783 557.044,626.283 556.5,627C 563.858,627.316 571.191,627.816 578.5,628.5C 578.5,629.5 578.5,630.5 578.5,631.5C 507.015,632.312 435.515,632.645 364,632.5C 358.458,632.163 352.958,631.496 347.5,630.5C 347.709,629.914 348.043,629.414 348.5,629C 364.667,627.713 380.667,627.213 396.5,627.5C 399.789,628.661 403.456,628.661 407.5,627.5C 436.453,628.406 465.453,628.406 494.5,627.5C 496.808,628.714 499.141,628.714 501.5,627.5C 502.5,623.5 503.5,623.5 504.5,627.5C 512.224,628.798 519.891,628.798 527.5,627.5C 531.846,627.666 536.179,627.499 540.5,627C 542.192,625.599 542.859,623.766 542.5,621.5 Z"/></g>
</svg>
